<svg width="33" height="33" viewBox="0 0 33 33" fill="none" xmlns="http://www.w3.org/2000/svg">
<path d="M18.5652 20.5582C18.5652 20.5582 20.168 19.6406 20.5875 19.4202C21.0059 19.1989 21.4394 19.1431 21.7026 19.3038C22.1012 19.5476 25.4484 21.7742 25.7302 21.9714C26.012 22.1689 26.1478 22.7329 25.7603 23.2855C25.3743 23.8381 23.5939 26.0232 22.8394 25.9998C22.0838 25.9753 18.9421 25.9064 13.0176 19.9803C7.09441 14.0561 7.02434 10.9136 7.0002 10.1579C6.97605 9.40265 9.16105 7.62177 9.71363 7.23543C10.267 6.84949 10.8319 6.99476 11.0282 7.26631C11.2514 7.57546 13.4523 10.912 13.6945 11.2944C13.8604 11.5556 13.7994 11.9914 13.5781 12.4102C13.3581 12.8298 12.4405 14.4326 12.4405 14.4326C12.4405 14.4326 13.0873 15.5358 15.2747 17.7228C17.4624 19.9102 18.5652 20.5582 18.5652 20.5582Z" stroke="black" stroke-width="1.5" stroke-miterlimit="10"/>
</svg>
